Coordinates
version=1
nRows=14
nColumns=36
inDegrees=yes

Units are S.I. units (second, meters, Newtons, ...)
If the header above contains a line with 'inDegrees', this indicates whether rotational values are in degrees (yes) or radians (no).

endheader
time	pelvis_tilt	pelvis_list	pelvis_rotation	pelvis_tx	pelvis_ty	pelvis_tz	hip_flexion_r	hip_adduction_r	hip_rotation_r	knee_angle_r	knee_angle_r_beta	ankle_angle_r	subtalar_angle_r	mtp_angle_r	hip_flexion_l	hip_adduction_l	hip_rotation_l	knee_angle_l	knee_angle_l_beta	ankle_angle_l	subtalar_angle_l	mtp_angle_l	lumbar_extension	lumbar_bending	lumbar_rotation	arm_flex_r	arm_add_r	arm_rot_r	elbow_flex_r	pro_sup_r	arm_flex_l	arm_add_l	arm_rot_l	elbow_flex_l	pro_sup_l
      1.78000000	    -21.98416664	     -0.83623455	      0.53731939	     -0.32178469	      0.66827978	     -0.60267080	     77.36557561	     -0.57008550	      6.17490149	     93.31832574	      1.62871204	     25.15062348	    -28.47978104	     -7.44557708	     78.64226230	     -6.67021775	      9.05136534	     93.05216969	      1.62406674	     26.64789843	    -13.53528043	     -7.44557708	    -13.81054535	      3.07598220	     -0.97318663	     92.18408554	    -16.53477192	     22.70786749	     52.26263011	    101.05933318	     93.99989388	    -18.67037562	     15.90370322	     48.60898394	     91.80919566
      1.79000000	    -22.07549050	     -0.99510612	      0.66428583	     -0.31891585	      0.67844469	     -0.60224509	     76.10961407	     -0.43635333	      6.07423099	     91.49328446	      1.59685906	     24.18864095	    -28.87419262	     -7.44790796	     77.26503131	     -6.42728785	      9.23572582	     91.09227429	      1.58986011	     26.12171135	    -14.05413345	     -7.44790796	    -12.95136805	      3.21694769	     -0.86742082	     99.74636527	    -16.97152044	     27.05886119	     54.22527582	    100.77369063	    101.58398273	    -19.25599997	     20.95043656	     49.09677978	     90.66230114
      1.80000000	    -22.19065885	     -1.28263290	      0.65462878	     -0.31563930	      0.68997623	     -0.60168614	     74.65762082	     -0.10526179	      5.97419113	     89.28688500	      1.55835012	     23.14334540	    -29.14344316	     -7.44989370	     75.76203873	     -6.38032699	      9.46086854	     88.88256450	      1.55129340	     25.43185161	    -14.83602105	     -7.44989370	    -12.15382999	      3.55644166	     -0.74763209	    107.48330005	    -17.06724579	     31.70480325	     55.66182765	    100.38026991	    109.14501161	    -20.06889158	     26.03546098	     49.52870310	     89.60141678
      1.81000000	    -22.31599017	     -1.54697270	      0.64832026	     -0.31198765	      0.70269410	     -0.60115077	     73.09435140	      0.17470695	      5.88604617	     86.85980218	      1.51598954	     21.60807936	    -29.50987519	     -7.47053686	     74.09814337	     -6.32042863	      9.62782928	     86.33090190	      1.50675848	     24.28105374	    -15.98418738	     -7.47053686	    -11.37053605	      3.80920243	     -0.72569484	    115.05811115	    -16.90272406	     36.18432461	     57.11417967	     92.64117302	    116.96688528	    -20.69354809	     31.92260072	     50.29993086	     77.44178794
      1.82000000	    -22.23079720	     -1.87209929	      0.66640311	     -0.30775812	      0.71701131	     -0.60076636	     71.09555574	      0.36666999	      5.57914843	     84.06028147	      1.46712868	     20.25032873	    -29.89227309	     -7.47041114	     72.01494955	     -6.28857020	      9.88642268	     83.48079324	      1.45701470	     23.34081969	    -16.84392622	     -7.47041114	    -10.82124615	      4.05457060	     -0.51971825	    122.35876643	    -16.55006281	     39.35661683	     57.21587029	     93.28491499	    124.38477416	    -20.11077410	     35.48469644	     48.54149042	     77.53465199
      1.83000000	    -22.40093976	     -2.00419310	      0.76492833	     -0.30315682	      0.73205422	     -0.60037994	     69.28830719	      0.36226034	      5.40330772	     81.06056842	      1.41477381	     18.22705327	    -30.18841897	     -7.47133777	     70.04101226	     -6.08533861	     10.00729449	     80.33605780	      1.40212872	     21.53701877	    -18.04305793	     -7.47133777	     -9.88922898	      4.02569652	     -0.71416416	    129.05679744	    -15.78749221	     42.23858314	     56.56257228	     93.08390585	    132.09210599	    -19.61703826	     41.33701353	     45.26019136	     77.10002354
      1.84000000	    -22.46902444	     -2.14543956	      0.81087890	     -0.29780046	      0.74849640	     -0.59990859	     67.19412875	      0.33596159	      5.18050568	     77.77460179	      1.35742288	     16.19217643	    -30.29532022	     -7.47157256	     67.77032856	     -6.00905750	     10.10892146	     76.91679282	      1.34245128	     19.81480599	    -18.90001196	     -7.47157256	     -8.96895838	      4.12003582	     -0.91469531	    135.20051287	    -14.27181370	     44.21678771	     54.33680334	     92.95309967	    138.77276692	    -18.40311495	     44.40350232	     40.90302612	     76.68952429
      1.85000000	    -22.36150198	     -2.16406536	      0.87001216	     -0.29184185	      0.76639739	     -0.59923030	     64.75551113	      0.19387381	      5.00841188	     74.22651238	      1.29549703	     14.21246928	    -30.19334392	     -7.48053307	     65.09385257	     -5.94006857	     10.06663767	     73.03325199	      1.27467071	     17.54945272	    -20.01308625	     -7.48053307	     -8.19431478	      4.08710965	     -1.59308221	    140.43463021	    -12.24382317	     45.13154203	     51.74254398	     87.56967700	    145.27524652	    -17.39717223	     48.63592324	     36.19703692	     73.56285055
      1.86000000	    -22.20568476	     -2.15649662	      0.83865442	     -0.28540935	      0.78544004	     -0.59862128	     62.11318168	      0.01503199	      4.68923215	     70.25352146	      1.22615526	     11.71027577	    -30.16663423	     -7.48029430	     62.19715876	     -5.98100589	      9.93870240	     68.80651898	      1.20090030	     15.11473849	    -20.77486539	     -7.48029430	     -7.27046518	      4.12770718	     -1.97917788	    145.12780596	     -9.98990816	     45.66889339	     47.45422480	     87.83593729	    150.14171917	    -15.91012098	     49.59502988	     31.21603275	     73.42816479
      1.87000000	    -21.92141179	     -2.04140718	      0.75703418	     -0.27861287	      0.80569326	     -0.59798577	     59.21840469	     -0.29386911	      4.20518426	     65.88125917	      1.14984489	      8.41495858	    -30.28812223	     -7.48022206	     59.00450805	     -6.03943204	      9.61399636	     64.23041688	      1.12103225	     11.59535861	    -22.07938161	     -7.48022206	     -6.42958154	      4.01548422	     -2.59320300	    149.20439235	     -7.75914939	     46.46558735	     42.81812369	     87.86944710	    154.75287031	    -14.72297191	     52.86243524	     26.15793845	     73.40078946
      1.88000000	    -21.34039084	     -1.92551692	      0.66492899	     -0.27123631	      0.82763916	     -0.59726622	     55.80190093	     -0.65955838	      3.53361122	     61.06890942	      1.06585354	      5.04170210	    -30.06535810	     -7.48148228	     55.28244812	     -6.20252615	      9.14568654	     59.22114635	      1.03360399	      7.99319006	    -22.90461536	     -7.48148228	     -5.84573675	      3.77746939	     -3.19550981	    152.43070550	     -5.96069145	     46.55027921	     38.76490471	     86.40617446	    158.79732708	    -13.52556862	     58.41134043	     21.06872723	     72.70756091
      1.89000000	    -20.38368142	     -1.94793060	      0.56121918	     -0.26332935	      0.85143791	     -0.59655762	     51.68902786	     -0.97346157	      2.55929792	     55.64757490	      0.97123340	      1.85077467	    -28.97239220	     -7.48126462	     50.98778874	     -6.62240052	      8.51874863	     53.79984433	      0.93898442	      4.94172501	    -22.01644802	     -7.48126462	     -5.53358069	      3.62785603	     -3.15824792	    154.97979725	     -4.88900309	     46.29391116	     35.22555458	     86.26024064	    160.91583688	    -12.17002825	     58.46032743	     17.54460814	     72.40870367
      1.90000000	    -19.30139449	     -1.95845029	      0.50650454	     -0.25513465	      0.87659720	     -0.59595029	     47.18196731	     -1.35128388	      1.28112056	     49.48672231	      0.86370624	     -3.68879886	    -28.85903091	     -7.48781505	     46.37106359	     -7.07940954	      7.55058618	     47.75892224	      0.83355044	     -0.29628333	    -22.21344780	     -7.48781505	     -5.13052542	      3.36168181	     -3.05927479	    156.81338118	     -4.63036391	     47.71200159	     32.59750224	     78.58529404	    162.67899742	    -10.74369818	     65.53043038	     12.82929868	     66.46860662
      1.91000000	    -17.74474844	     -1.94197873	      0.60402810	     -0.24629564	      0.90348394	     -0.59561102	     41.81629672	     -1.91537988	     -0.50317338	     42.66169754	      0.74458709	     -8.04564438	    -26.37122462	     -7.48774477	     41.07390926	     -7.66824590	      5.85685597	     41.18101321	      0.71874427	     -4.93479096	    -19.87520144	     -7.48774477	     -5.13993667	      3.16332209	     -3.01505837	    157.77802316	     -4.66105980	     47.78240167	     30.42795579	     78.54492073	    163.09169743	    -10.03238053	     65.48861582	     10.24903555	     66.31664776
